<svg width="206" height="348" viewBox="0 0 206 348" fill="none" xmlns="http://www.w3.org/2000/svg">
<path d="M35.8103 296.77V312.92H33.1603V301.86L28.2402 312.92H26.4003L21.4502 301.86V312.92H18.8003V296.77H21.6603L27.3302 309.43L32.9802 296.77H35.8103Z" fill="white"/>
<path d="M41.3104 312.3C40.3304 311.75 39.5704 310.98 39.0104 309.98C38.4504 308.98 38.1704 307.82 38.1704 306.51C38.1704 305.2 38.4604 304.06 39.0304 303.05C39.6004 302.04 40.3904 301.27 41.3804 300.73C42.3704 300.19 43.4803 299.92 44.7003 299.92C45.9203 299.92 47.0304 300.19 48.0204 300.73C49.0104 301.27 49.7904 302.05 50.3704 303.05C50.9404 304.06 51.2303 305.21 51.2303 306.51C51.2303 307.81 50.9403 308.97 50.3503 309.97C49.7603 310.98 48.9603 311.76 47.9503 312.3C46.9403 312.85 45.8203 313.12 44.5903 313.12C43.3603 313.12 42.2904 312.85 41.3104 312.3ZM46.5004 310.34C47.1004 310.01 47.5803 309.53 47.9503 308.88C48.3203 308.23 48.5104 307.44 48.5104 306.51C48.5104 305.58 48.3303 304.79 47.9703 304.15C47.6103 303.51 47.1404 303.02 46.5504 302.7C45.9604 302.38 45.3304 302.21 44.6504 302.21C43.9704 302.21 43.3404 302.37 42.7604 302.7C42.1804 303.03 41.7204 303.51 41.3804 304.15C41.0404 304.79 40.8704 305.58 40.8704 306.51C40.8704 307.89 41.2204 308.95 41.9304 309.7C42.6404 310.45 43.5203 310.83 44.5903 310.83C45.2703 310.83 45.9104 310.67 46.5104 310.34H46.5004Z" fill="white"/>
<path d="M62.6105 300.53C63.4105 300.95 64.0305 301.57 64.4805 302.39C64.9305 303.21 65.1505 304.2 65.1505 305.36V312.91H62.5305V305.75C62.5305 304.6 62.2405 303.73 61.6705 303.11C61.1005 302.5 60.3104 302.19 59.3204 302.19C58.3304 302.19 57.5404 302.5 56.9604 303.11C56.3804 303.72 56.0905 304.6 56.0905 305.75V312.91H53.4404V300.11H56.0905V301.57C56.5205 301.04 57.0805 300.63 57.7505 300.34C58.4205 300.05 59.1405 299.9 59.9005 299.9C60.9105 299.9 61.8105 300.11 62.6105 300.53Z" fill="white"/>
<path d="M68.1404 297.93C67.8104 297.6 67.6504 297.2 67.6504 296.72C67.6504 296.24 67.8104 295.84 68.1404 295.51C68.4704 295.18 68.8703 295.02 69.3503 295.02C69.8303 295.02 70.2104 295.18 70.5304 295.51C70.8504 295.84 71.0204 296.24 71.0204 296.72C71.0204 297.2 70.8604 297.6 70.5304 297.93C70.2004 298.26 69.8103 298.42 69.3503 298.42C68.8903 298.42 68.4704 298.26 68.1404 297.93ZM70.6504 300.11V312.91H68.0004V300.11H70.6504Z" fill="white"/>
<path d="M76.67 302.27V309.36C76.67 309.84 76.78 310.18 77.01 310.39C77.23 310.6 77.62 310.7 78.16 310.7H79.79V312.91H77.7C76.51 312.91 75.59 312.63 74.96 312.07C74.32 311.51 74.01 310.61 74.01 309.35V302.26H72.5V300.1H74.01V296.92H76.6801V300.1H79.79V302.26H76.6801L76.67 302.27Z" fill="white"/>
<path d="M83.7401 312.3C82.7601 311.75 82.0001 310.98 81.4401 309.98C80.8801 308.98 80.6001 307.82 80.6001 306.51C80.6001 305.2 80.8901 304.06 81.4601 303.05C82.0301 302.04 82.8202 301.27 83.8102 300.73C84.8002 300.19 85.9101 299.92 87.1301 299.92C88.3501 299.92 89.4601 300.19 90.4501 300.73C91.4401 301.27 92.2202 302.05 92.8002 303.05C93.3802 304.05 93.6602 305.21 93.6602 306.51C93.6602 307.81 93.3702 308.97 92.7802 309.97C92.1902 310.98 91.3901 311.76 90.3801 312.3C89.3701 312.85 88.2501 313.12 87.0201 313.12C85.7901 313.12 84.7201 312.85 83.7401 312.3ZM88.9302 310.34C89.5302 310.01 90.0101 309.53 90.3801 308.88C90.7501 308.23 90.9401 307.44 90.9401 306.51C90.9401 305.58 90.7602 304.79 90.4102 304.15C90.0602 303.51 89.5801 303.02 88.9901 302.7C88.4001 302.37 87.7701 302.21 87.0801 302.21C86.3901 302.21 85.7701 302.37 85.1901 302.7C84.6101 303.03 84.1502 303.51 83.8102 304.15C83.4702 304.79 83.3002 305.58 83.3002 306.51C83.3002 307.89 83.6501 308.95 84.3601 309.7C85.0601 310.45 85.9501 310.83 87.0201 310.83C87.7001 310.83 88.3401 310.67 88.9401 310.34H88.9302Z" fill="white"/>
<path d="M100.07 300.45C100.71 300.09 101.48 299.9 102.36 299.9V302.64H101.69C100.65 302.64 99.8703 302.9 99.3303 303.43C98.7903 303.96 98.5304 304.87 98.5304 306.17V312.91H95.8804V300.11H98.5304V301.97C98.9204 301.32 99.4303 300.81 100.07 300.45Z" fill="white"/>
<path d="M104.28 297.93C103.95 297.6 103.79 297.2 103.79 296.72C103.79 296.24 103.95 295.84 104.28 295.51C104.61 295.18 105.01 295.02 105.49 295.02C105.97 295.02 106.35 295.18 106.68 295.51C107.01 295.84 107.17 296.24 107.17 296.72C107.17 297.2 107.01 297.6 106.68 297.93C106.35 298.26 105.96 298.42 105.49 298.42C105.02 298.42 104.61 298.26 104.28 297.93ZM106.79 300.11V312.91H104.14V300.11H106.79Z" fill="white"/>
<path d="M118.96 300.53C119.76 300.95 120.38 301.57 120.83 302.39C121.28 303.21 121.5 304.2 121.5 305.36V312.91H118.88V305.75C118.88 304.6 118.59 303.73 118.02 303.11C117.45 302.5 116.67 302.19 115.67 302.19C114.67 302.19 113.89 302.5 113.31 303.11C112.73 303.72 112.44 304.6 112.44 305.75V312.91H109.79V300.11H112.44V301.57C112.87 301.04 113.43 300.63 114.1 300.34C114.77 300.05 115.49 299.9 116.25 299.9C117.26 299.9 118.16 300.11 118.96 300.53Z" fill="white"/>
<path d="M132.25 300.49C133.02 300.89 133.62 301.38 134.05 301.97V300.11H136.72V313.12C136.72 314.3 136.47 315.35 135.98 316.27C135.48 317.19 134.77 317.92 133.83 318.44C132.89 318.97 131.77 319.23 130.47 319.23C128.74 319.23 127.3 318.82 126.15 318.01C125 317.2 124.35 316.09 124.2 314.7H126.82C127.02 315.37 127.45 315.9 128.11 316.31C128.77 316.72 129.55 316.93 130.47 316.93C131.54 316.93 132.4 316.6 133.06 315.95C133.72 315.3 134.05 314.35 134.05 313.12V310.98C133.6 311.58 132.99 312.09 132.23 312.5C131.47 312.91 130.59 313.12 129.62 313.12C128.5 313.12 127.49 312.84 126.56 312.27C125.64 311.7 124.91 310.91 124.38 309.9C123.85 308.89 123.58 307.74 123.58 306.45C123.58 305.16 123.85 304.03 124.38 303.03C124.91 302.03 125.64 301.27 126.56 300.72C127.48 300.17 128.5 299.9 129.62 299.9C130.61 299.9 131.49 300.1 132.26 300.49H132.25ZM133.5 304.2C133.14 303.55 132.66 303.05 132.07 302.71C131.48 302.37 130.85 302.2 130.17 302.2C129.49 302.2 128.85 302.37 128.26 302.7C127.67 303.03 127.19 303.52 126.83 304.16C126.47 304.8 126.28 305.57 126.28 306.45C126.28 307.33 126.46 308.11 126.83 308.77C127.19 309.44 127.67 309.94 128.27 310.29C128.87 310.64 129.5 310.81 130.16 310.81C130.82 310.81 131.48 310.64 132.06 310.3C132.65 309.96 133.13 309.46 133.49 308.8C133.85 308.14 134.04 307.37 134.04 306.49C134.04 305.61 133.86 304.84 133.49 304.19L133.5 304.2Z" fill="white"/>
<path d="M145.83 303.07C146.36 302.09 147.08 301.32 148 300.78C148.92 300.24 149.95 299.97 151.08 299.97C152.21 299.97 153.16 300.21 153.98 300.69C154.8 301.17 155.41 301.77 155.81 302.5V300.18H157.95V312.91H155.81V310.54C155.39 311.28 154.77 311.9 153.94 312.39C153.11 312.88 152.15 313.12 151.05 313.12C149.95 313.12 148.9 312.84 147.98 312.28C147.06 311.72 146.35 310.94 145.82 309.93C145.29 308.92 145.03 307.78 145.03 306.49C145.03 305.2 145.29 304.05 145.82 303.06L145.83 303.07ZM155.24 304.01C154.85 303.3 154.33 302.75 153.67 302.37C153.01 301.99 152.29 301.8 151.5 301.8C150.71 301.8 149.99 301.99 149.34 302.36C148.69 302.73 148.17 303.27 147.78 303.99C147.39 304.7 147.2 305.54 147.2 306.5C147.2 307.46 147.39 308.32 147.78 309.04C148.17 309.76 148.69 310.31 149.34 310.69C149.99 311.07 150.71 311.26 151.5 311.26C152.29 311.26 153.01 311.07 153.67 310.69C154.33 310.31 154.85 309.76 155.24 309.04C155.63 308.32 155.82 307.48 155.82 306.52C155.82 305.56 155.63 304.72 155.24 304.01Z" fill="white"/>
<path d="M171.07 301.35C172.03 302.29 172.51 303.64 172.51 305.4V312.9H170.42V305.7C170.42 304.43 170.1 303.46 169.47 302.78C168.84 302.1 167.97 301.77 166.87 301.77C165.77 301.77 164.87 302.12 164.21 302.82C163.55 303.52 163.22 304.53 163.22 305.86V312.9H161.11V300.17H163.22V301.98C163.64 301.33 164.21 300.83 164.93 300.47C165.65 300.11 166.44 299.94 167.31 299.94C168.86 299.94 170.11 300.41 171.07 301.35Z" fill="white"/>
<path d="M175.57 303.07C176.1 302.09 176.82 301.32 177.74 300.78C178.66 300.24 179.7 299.97 180.84 299.97C181.83 299.97 182.75 300.2 183.6 300.66C184.45 301.12 185.101 301.72 185.551 302.46V295.72H187.69V312.91H185.551V310.52C185.131 311.28 184.51 311.9 183.69 312.39C182.87 312.88 181.911 313.12 180.811 313.12C179.711 313.12 178.65 312.84 177.73 312.28C176.81 311.72 176.081 310.94 175.561 309.93C175.031 308.92 174.771 307.78 174.771 306.49C174.771 305.2 175.031 304.05 175.561 303.06L175.57 303.07ZM184.98 304.01C184.59 303.3 184.071 302.75 183.411 302.37C182.751 301.99 182.03 301.8 181.24 301.8C180.45 301.8 179.73 301.99 179.08 302.36C178.43 302.73 177.911 303.27 177.521 303.99C177.131 304.7 176.94 305.54 176.94 306.5C176.94 307.46 177.131 308.32 177.521 309.04C177.911 309.76 178.43 310.31 179.08 310.69C179.73 311.07 180.45 311.26 181.24 311.26C182.03 311.26 182.751 311.07 183.411 310.69C184.071 310.31 184.59 309.76 184.98 309.04C185.37 308.32 185.561 307.48 185.561 306.52C185.561 305.56 185.37 304.72 184.98 304.01Z" fill="white"/>
<path d="M44.2701 324.71V340.79H42.1602V328.8L36.8201 340.79H35.3301L29.9601 328.78V340.79H27.8501V324.71H30.1301L36.0801 338L42.0302 324.71H44.2802H44.2701Z" fill="white"/>
<path d="M47.6105 330.95C48.1405 329.97 48.8605 329.2 49.7805 328.66C50.7005 328.12 51.7305 327.85 52.8605 327.85C53.9905 327.85 54.9405 328.09 55.7605 328.57C56.5805 329.05 57.1905 329.65 57.5905 330.38V328.06H59.7305V340.79H57.5905V338.42C57.1705 339.16 56.5505 339.78 55.7205 340.27C54.8905 340.76 53.9304 341 52.8304 341C51.7304 341 50.6805 340.72 49.7605 340.16C48.8405 339.6 48.1305 338.82 47.6005 337.81C47.0705 336.8 46.8105 335.66 46.8105 334.37C46.8105 333.08 47.0705 331.93 47.6005 330.94L47.6105 330.95ZM57.0205 331.89C56.6305 331.18 56.1104 330.63 55.4504 330.25C54.7904 329.87 54.0705 329.68 53.2805 329.68C52.4905 329.68 51.7705 329.87 51.1205 330.24C50.4705 330.61 49.9505 331.15 49.5605 331.87C49.1705 332.58 48.9805 333.42 48.9805 334.38C48.9805 335.34 49.1705 336.2 49.5605 336.92C49.9505 337.64 50.4705 338.19 51.1205 338.57C51.7705 338.95 52.4905 339.14 53.2805 339.14C54.0705 339.14 54.7904 338.95 55.4504 338.57C56.1104 338.19 56.6305 337.64 57.0205 336.92C57.4105 336.2 57.6005 335.36 57.6005 334.4C57.6005 333.44 57.4105 332.6 57.0205 331.89Z" fill="white"/>
<path d="M72.8501 329.23C73.8101 330.17 74.2902 331.52 74.2902 333.28V340.78H72.2001V333.58C72.2001 332.31 71.8801 331.34 71.2501 330.66C70.6201 329.98 69.7501 329.65 68.6501 329.65C67.5501 329.65 66.6501 330 65.9901 330.7C65.3301 331.4 65.0001 332.41 65.0001 333.74V340.78H62.8901V328.05H65.0001V329.86C65.4201 329.21 65.9901 328.71 66.7101 328.35C67.4301 327.99 68.2201 327.82 69.0901 327.82C70.6401 327.82 71.8901 328.29 72.8501 329.23Z" fill="white"/>
<path d="M77.3502 330.95C77.8802 329.97 78.6003 329.2 79.5203 328.66C80.4403 328.12 81.4702 327.85 82.6002 327.85C83.7302 327.85 84.6802 328.09 85.5002 328.57C86.3202 329.05 86.9302 329.65 87.3302 330.38V328.06H89.4702V340.79H87.3302V338.42C86.9102 339.16 86.2902 339.78 85.4602 340.27C84.6302 340.76 83.6702 341 82.5702 341C81.4702 341 80.4202 340.72 79.5002 340.16C78.5802 339.6 77.8702 338.82 77.3402 337.81C76.8102 336.8 76.5503 335.66 76.5503 334.37C76.5503 333.08 76.8102 331.93 77.3402 330.94L77.3502 330.95ZM86.7603 331.89C86.3703 331.18 85.8502 330.63 85.1902 330.25C84.5302 329.87 83.8103 329.68 83.0203 329.68C82.2303 329.68 81.5102 329.87 80.8602 330.24C80.2102 330.61 79.6903 331.15 79.3003 331.87C78.9103 332.58 78.7202 333.42 78.7202 334.38C78.7202 335.34 78.9103 336.2 79.3003 336.92C79.6903 337.64 80.2102 338.19 80.8602 338.57C81.5102 338.95 82.2303 339.14 83.0203 339.14C83.8103 339.14 84.5302 338.95 85.1902 338.57C85.8502 338.19 86.3703 337.64 86.7603 336.92C87.1503 336.2 87.3402 335.36 87.3402 334.4C87.3402 333.44 87.1503 332.6 86.7603 331.89Z" fill="white"/>
<path d="M100.82 328.57C101.65 329.05 102.26 329.65 102.67 330.38V328.06H104.81V341.07C104.81 342.23 104.56 343.27 104.07 344.17C103.57 345.08 102.87 345.78 101.94 346.3C101.02 346.81 99.9501 347.07 98.7201 347.07C97.0501 347.07 95.6502 346.68 94.5402 345.89C93.4302 345.1 92.7701 344.02 92.5701 342.66H94.6602C94.8902 343.43 95.3701 344.06 96.1001 344.53C96.8301 345 97.7001 345.24 98.7201 345.24C99.8801 345.24 100.83 344.88 101.57 344.15C102.31 343.42 102.67 342.4 102.67 341.08V338.41C102.25 339.15 101.63 339.77 100.81 340.27C99.9902 340.77 99.0302 341.01 97.9302 341.01C96.8302 341.01 95.7701 340.73 94.8501 340.17C93.9301 339.61 93.2002 338.83 92.6802 337.82C92.1602 336.81 91.8901 335.67 91.8901 334.38C91.8901 333.09 92.1502 331.94 92.6802 330.95C93.2102 329.97 93.9301 329.2 94.8501 328.66C95.7701 328.12 96.8002 327.85 97.9302 327.85C99.0602 327.85 99.9901 328.09 100.82 328.57ZM102.09 331.89C101.7 331.18 101.18 330.63 100.52 330.25C99.8601 329.87 99.1401 329.68 98.3501 329.68C97.5601 329.68 96.8401 329.87 96.1901 330.24C95.5401 330.61 95.0201 331.15 94.6301 331.87C94.2401 332.58 94.0502 333.42 94.0502 334.38C94.0502 335.34 94.2401 336.2 94.6301 336.92C95.0201 337.64 95.5401 338.19 96.1901 338.57C96.8401 338.95 97.5601 339.14 98.3501 339.14C99.1401 339.14 99.8601 338.95 100.52 338.57C101.18 338.19 101.7 337.64 102.09 336.92C102.48 336.2 102.67 335.36 102.67 334.4C102.67 333.44 102.48 332.6 102.09 331.89Z" fill="white"/>
<path d="M119.56 335.22H109.39C109.47 336.47 109.9 337.45 110.68 338.16C111.46 338.87 112.41 339.22 113.53 339.22C114.44 339.22 115.21 339.01 115.82 338.58C116.43 338.15 116.86 337.58 117.11 336.87H119.39C119.05 338.09 118.37 339.09 117.35 339.86C116.33 340.63 115.06 341.01 113.54 341.01C112.33 341.01 111.25 340.74 110.3 340.2C109.35 339.66 108.6 338.89 108.06 337.89C107.52 336.89 107.25 335.73 107.25 334.42C107.25 333.11 107.51 331.95 108.04 330.96C108.57 329.97 109.31 329.21 110.26 328.67C111.21 328.13 112.31 327.87 113.55 327.87C114.79 327.87 115.83 328.13 116.76 328.66C117.69 329.19 118.41 329.91 118.91 330.83C119.41 331.75 119.66 332.79 119.66 333.95C119.66 334.35 119.64 334.78 119.59 335.23L119.56 335.22ZM116.91 331.42C116.55 330.84 116.07 330.4 115.46 330.1C114.85 329.8 114.17 329.65 113.43 329.65C112.36 329.65 111.45 329.99 110.7 330.67C109.95 331.35 109.52 332.3 109.41 333.5H117.45C117.45 332.69 117.27 332 116.91 331.42Z" fill="white"/>
<path d="M140 328.44C140.77 328.85 141.39 329.47 141.83 330.29C142.28 331.11 142.5 332.11 142.5 333.29V340.79H140.41V333.59C140.41 332.32 140.1 331.35 139.47 330.67C138.84 330 137.99 329.66 136.93 329.66C135.87 329.66 134.96 330.01 134.3 330.72C133.65 331.43 133.32 332.44 133.32 333.78V340.8H131.23V333.6C131.23 332.33 130.92 331.36 130.29 330.68C129.66 330.01 128.81 329.67 127.75 329.67C126.69 329.67 125.78 330.02 125.13 330.73C124.48 331.44 124.15 332.45 124.15 333.79V340.81H122.04V328.08H124.15V329.91C124.57 329.24 125.13 328.73 125.83 328.38C126.54 328.02 127.31 327.85 128.16 327.85C129.23 327.85 130.17 328.09 130.99 328.57C131.81 329.05 132.42 329.75 132.83 330.68C133.19 329.78 133.77 329.09 134.6 328.59C135.42 328.09 136.33 327.85 137.34 327.85C138.35 327.85 139.21 328.06 139.99 328.47L140 328.44Z" fill="white"/>
<path d="M157.12 335.22H146.94C147.02 336.47 147.45 337.45 148.23 338.16C149.01 338.87 149.96 339.22 151.08 339.22C151.99 339.22 152.76 339.01 153.37 338.58C153.98 338.15 154.41 337.58 154.66 336.87H156.94C156.6 338.09 155.92 339.09 154.9 339.86C153.88 340.63 152.61 341.01 151.09 341.01C149.88 341.01 148.8 340.74 147.85 340.2C146.9 339.66 146.15 338.89 145.61 337.89C145.07 336.89 144.8 335.73 144.8 334.42C144.8 333.11 145.06 331.95 145.59 330.96C146.12 329.97 146.86 329.21 147.81 328.67C148.76 328.14 149.86 327.87 151.1 327.87C152.34 327.87 153.38 328.13 154.31 328.66C155.24 329.19 155.96 329.91 156.46 330.83C156.96 331.75 157.21 332.79 157.21 333.95C157.21 334.35 157.19 334.78 157.14 335.23L157.12 335.22ZM154.47 331.42C154.11 330.84 153.63 330.4 153.02 330.1C152.41 329.8 151.73 329.65 150.99 329.65C149.92 329.65 149.01 329.99 148.26 330.67C147.51 331.35 147.08 332.3 146.97 333.5H155.01C155.01 332.69 154.83 332 154.48 331.42H154.47Z" fill="white"/>
<path d="M169.56 329.23C170.52 330.17 171 331.52 171 333.28V340.78H168.91V333.58C168.91 332.31 168.59 331.34 167.96 330.66C167.33 329.98 166.46 329.65 165.36 329.65C164.26 329.65 163.36 330 162.7 330.7C162.04 331.4 161.71 332.41 161.71 333.74V340.78H159.6V328.05H161.71V329.86C162.13 329.21 162.7 328.71 163.42 328.35C164.14 327.99 164.93 327.82 165.8 327.82C167.35 327.82 168.6 328.29 169.56 329.23Z" fill="white"/>
<path d="M176.4 329.8V337.3C176.4 337.92 176.53 338.36 176.8 338.61C177.06 338.87 177.52 338.99 178.17 338.99H179.73V340.78H177.82C176.64 340.78 175.76 340.51 175.17 339.97C174.58 339.43 174.29 338.54 174.29 337.3V329.8H172.64V328.06H174.29V324.85H176.4V328.06H179.72V329.8H176.4Z" fill="white"/>
<g opacity="0.5">
<path d="M53.7502 206.51L72.4902 173.96L107.7 234.94L149.14 163.17L163.34 187.84L205.81 120.84L198.92 114.03H5.46021L0.490234 120.9L53.7302 206.51H53.7502ZM195.74 119.41L163.35 170.96L154 154.77L174.03 119.41H195.75H195.74ZM148.75 145.67L133.62 119.41H163.23L148.74 145.67H148.75ZM123.7 119.41L143.91 154.05L107.71 216.75L77.7402 164.85L103.9 119.41H123.7ZM73.0403 156.71L51.2302 119.41H94.1703L73.0403 156.71ZM40.6002 119.41L67.7903 165.8L53.7502 190.11L8.35022 119.41H40.6002Z" fill="#F9A98A"/>
</g>
<path d="M185.71 85.98C189.52 82.64 192.29 78.21 193.62 73.25C195.42 66.56 194.5 59.57 191.04 53.57C187.58 47.57 181.99 43.28 175.3 41.49C173.09 40.9 170.83 40.6 168.56 40.6C165.79 40.6 163.01 41.07 160.36 41.96L152.57 28.43L133.83 60.98L98.61 0L57.17 71.77L42.97 47.1L0.5 120.91H205.82L185.71 85.98ZM168.56 48.79C170.11 48.79 171.67 49 173.19 49.4C177.75 50.61 181.57 53.54 183.95 57.65C186.32 61.75 186.95 66.53 185.72 71.11C184.94 74 183.5 76.56 181.51 78.67L164.58 49.26C165.89 48.95 167.24 48.79 168.57 48.79H168.56ZM15.12 112.46L42.98 63.97L52.33 80.16L33.8199 112.46H15.12ZM57.58 89.26L70.6 112.46H44.5601L57.58 89.26ZM80.22 112.46L62.42 80.88L98.62 18.18L128.59 70.08L104.56 112.46H80.22ZM133.29 78.22L152.68 112.46H113.9L133.29 78.22ZM163.56 112.46L138.54 69.13L152.58 44.82L191.63 112.46H163.56Z" fill="url(#paint0_linear_799_13232)"/>
<path d="M32.5405 271.02H28.7205V277.87H23.6904V255.02H33.0305C38.4805 255.02 41.7805 258.25 41.7805 262.92V262.98C41.7805 268.27 37.6705 271.01 32.5405 271.01V271.02ZM36.6805 263.02C36.6805 260.77 35.1105 259.56 32.6005 259.56H28.7104V266.55H32.6904C35.2104 266.55 36.6705 265.05 36.6705 263.09V263.03L36.6805 263.02Z" fill="white"/>
<path d="M44.5903 277.87V255.02H61.8303V259.49H49.5903V264.13H60.3604V268.6H49.5903V273.4H61.9904V277.87H44.5903Z" fill="white"/>
<path d="M79.7904 277.87L74.9004 270.56H70.9503V277.87H65.9204V255.02H76.3704C81.7604 255.02 84.9904 257.86 84.9904 262.56V262.62C84.9904 266.31 83.0003 268.63 80.1003 269.7L85.6804 277.86H79.8004L79.7904 277.87ZM79.8904 262.82C79.8904 260.67 78.3903 259.55 75.9403 259.55H70.9503V266.11H76.0404C78.4904 266.11 79.8904 264.8 79.8904 262.88V262.82Z" fill="white"/>
<path d="M99.0706 278.27C92.3506 278.27 87.3506 273.08 87.3506 266.52V266.46C87.3506 259.96 92.2406 254.64 99.2706 254.64C103.581 254.64 106.161 256.07 108.281 258.16L105.081 261.85C103.311 260.25 101.531 259.27 99.2406 259.27C95.3906 259.27 92.6106 262.47 92.6106 266.39V266.45C92.6106 270.37 95.3206 273.63 99.2406 273.63C101.851 273.63 103.451 272.58 105.251 270.95L108.451 274.18C106.101 276.7 103.491 278.26 99.0806 278.26V278.27H99.0706Z" fill="white"/>
<path d="M121.711 278.27C114.661 278.27 109.601 273.01 109.601 266.52V266.46C109.601 259.96 114.731 254.64 121.771 254.64C128.811 254.64 133.881 259.9 133.881 266.39V266.45C133.881 272.95 128.751 278.27 121.711 278.27ZM128.631 266.45C128.631 262.53 125.761 259.27 121.711 259.27C117.661 259.27 114.861 262.47 114.861 266.39V266.45C114.861 270.37 117.731 273.63 121.781 273.63C125.831 273.63 128.631 270.43 128.631 266.51V266.45Z" fill="white"/>
<path d="M158.431 254.86V277.55L141.75 264.62V277.51H136.561V254.83L153.24 267.76V254.86H158.431Z" fill="white"/>
<path d="M160.75 277.54L171.681 254.85L182.61 277.54H177.031V277.51L171.681 266.41L166.33 277.54H160.75Z" fill="white"/>
<defs>
<linearGradient id="paint0_linear_799_13232" x1="-1.72" y1="210.13" x2="228.84" y2="-20.4299" gradientUnits="userSpaceOnUse">
<stop offset="0.17" stop-color="#AC3100"/>
<stop offset="0.8" stop-color="#FF7E1A"/>
</linearGradient>
</defs>
</svg>
