<?xml version="1.0" encoding="UTF-8"?>
<svg width="576" height="576" version="1.1" viewBox="0 0 576 576" xml:space="preserve" xmlns="http://www.w3.org/2000/svg" xmlns:cc="http://creativecommons.org/ns#" xmlns:dc="http://purl.org/dc/elements/1.1/" xmlns:rdf="http://www.w3.org/1999/02/22-rdf-syntax-ns#"><metadata><rdf:RDF><cc:Work rdf:about=""><dc:format>image/svg+xml</dc:format><dc:type rdf:resource="http://purl.org/dc/dcmitype/StillImage"/><dc:title/></cc:Work></rdf:RDF></metadata><defs><clipPath id="clipPath106"><path d="m0 432h432v-432h-432z"/></clipPath><linearGradient id="linearGradient128" x2="1" gradientTransform="matrix(0 -99.855 -99.855 0 216 360.79)" gradientUnits="userSpaceOnUse"><stop stop-color="#fbbb1c" offset="0"/><stop stop-color="#bd2b0b" offset="1"/></linearGradient><clipPath id="clipPath138"><path d="m0 432h432v-432h-432z"/></clipPath><clipPath id="clipPath146"><path d="m138.53 352.46h155.06v-78.826h-155.06z"/></clipPath><clipPath id="clipPath162"><path d="m138.53 274.93c0-42.82 34.714-77.53 77.533-77.53 42.817 0 77.531 34.71 77.531 77.53 0 42.821-34.714 77.531-77.531 77.531-42.819 0-77.533-34.71-77.533-77.531"/></clipPath><clipPath id="clipPath186"><path d="m0 432h432v-432h-432z"/></clipPath></defs><g transform="matrix(1.3333 0 0 -1.3333 0 576)"><g clip-path="url(#clipPath106)"><g transform="translate(295.96 274.68)"><path d="m0 0c0-44.162-35.799-79.961-79.959-79.961-44.163 0-79.964 35.799-79.964 79.961 0 44.163 35.801 79.959 79.964 79.959 44.16 0 79.959-35.796 79.959-79.959" fill="#fff"/></g></g><path d="m138.47 274.93c0-42.82 34.713-77.53 77.533-77.53 42.818 0 77.53 34.71 77.53 77.53 0 42.821-34.712 77.531-77.53 77.531-42.82 0-77.533-34.71-77.533-77.531" fill="url(#linearGradient128)"/><g clip-path="url(#clipPath138)"><g clip-path="url(#clipPath146)" opacity=".12"><g transform="translate(216.06 349.87)"><path d="m0 0c42.385 0 76.803-34.015 77.498-76.235 6e-3 0.433 0.032 0.86 0.032 1.295 0 42.821-34.712 77.531-77.53 77.531-42.819 0-77.533-34.71-77.533-77.531 0-0.435 0.026-0.862 0.033-1.295 0.695 42.22 35.115 76.235 77.5 76.235" fill="#822000"/></g></g></g><g clip-path="url(#clipPath162)"><g transform="translate(181.96 327.04)"><path d="m0 0c1.229 1.43 3.525 2.414 4.648 1.328s1.409-3.146 0.343-4.527c-0.873-1.131-3.848-2.439-5.259-0.984-1.313 1.353-0.509 3.278 0.268 4.183" fill="#fff"/></g><g transform="translate(222.45 251.72)"><path d="m0 0c3.856-11.596-1.744-13.984-7.334-13.663-5.767 0.331-8.491 3.459-9.487 9.852 2.649-0.118 6.368 0.62 8.728 2.71-27.337 3.209-46.65 26.51-46.312 36.131 2.774-2.877 9.503-3.83 13.149 0.027-4.792 1.201-8.906 6.865-8.432 11.905 3.588-3.007 7.717-1.383 9.237 1.785-7.021-1.473-13.711 9.352-9.697 20.785 3.81 10.852 14.353 14.353 20.971 12.985-0.697-1.011-1.034-2.494-0.449-4.293 1.83 3.036 5.761 4.709 11.01 5.646l-2.378 1.94c-1.649-0.242-3.104-0.727-4.811-1.472-7.553 3.327-24.097 0.899-35.21-20.08 1.777 1.45 4.051 2.383 4.864 2.457-2.996-4.626-6.585-12.377-7.7-18.926 1.281 1.169 3.124 2.203 4.733 2.607-4.288-17.899 7.346-37.116 20.931-45.207-0.4-3.995 0.696-6.247 4.245-10.244-0.281-0.412-1.352-1.775-1.975-2.648-0.324-0.455-0.847-1.196-1.867-0.986-1.796 0.369-25.015 6.851-27.081 8.446-1.01 4.738-7.418 9.471-12.567 7.152-2.184 0.567-3.179-0.851-3.64-1.941 1.252 0.783 2.715 0.403 3.397-0.242 0.779-2.265 4.955 2.004 8.482-4.214-2.183 0.647-9.846 2.287-10.91-0.039-0.972-0.088-2.477-0.114-3.007-2.176 1.216 0.553 2.181 0.62 3.022 0.362 1.375-2.103 10.716 0.621 15.515-3.503 4.205-4.314 1.194-6.593 4.037-7.838-0.109-1.481-1.259-1.875-2.35-2.136 1.448-0.793 3.461-0.786 4.352 1.563 2.653 0.613 0.647 6.308-2.157 7.925 5.338-1.941 18.957-5.881 22.747-6.671 1.946-0.405 3.422 0.012 4.297 1.216 0.649 0.892 1.703 1.946 2.587 3.291 1.997-1.52 3.457-1.767 5.165-1.497-0.405 3.304 0.742 6.204 2.787 7.642 1.116-12.432 6.868-17.869 13.757-18.072 1.092-1.209 4.799-8.036 5.203-8.777 0.371-0.68 0.918-1.985 0.068-2.428-1.475-0.769-19.477-4.964-25.188-6.35-2.863 2.52-12.153 5.652-13.497 0.279-1.969-1.522-1.94-3.092-0.711-4.459-0.161 1.762 0.292 2.062 1.794 3.258 2.32-1.127 3.126 2.365 8.588-0.59-4.637-1.725-9.586-3.862-8.427-7.804-0.7-0.825-0.552-2.908-0.15-4.176 0.801 0.728 1.25 1.717 1.599 3.258 2.125-0.615 0.384 2.835 10.828 6.305 6.524-1.828 7.521-6.447 9.324-6.584 0.956-1.324 0.134-2.935-0.911-3.911 2.848 0.014 3.698 2.788 2.696 4.313 2.321 3.675-4.342 7.212-6.819 7.342 5.214 1.391 21.269 5.194 24.019 6.488 2.184 1.028 2.292 2.967 0.944 5.26-0.585 0.994-3.602 7.256-4.325 8.553 12.25 1.642 9.912 15.668 4.316 19.444m8.513-11.8c0.937-1.618 4.515-2.811 7.701-2.406-1.289-4.566-8.971-6.105-12.723-5.296 9.843-10.869 7.921-24.593 25.282-23.083-9.813 1.618-13.793 12.689-14.467 18.489 4.027-5.029 10.511-7.014 14.812-6.948-2.448 4.631-3.83 8.836-4.1 14.5 15.443-10.385 29.874-14.768 42.619-18.789 2.213-0.698 1.579-2.866 0.1-3.593-6.237-3.063-26.647-1.625-34.02 7.726 4.766-9.351 15.465-11.778 26.364-13.17 0.048-0.642 0.106-4.496-3.774-4.104-7.215 0.73-20.374 1.947-27.917 13.328 3.11-12.439 23.18-17.145 29.196-18.783 2.778-0.756 6.654-0.715 8.042 9.36 3.676 0.709 6.704 2.682 7.988 4.291 1.325 1.66 4.212 7.352-1.056 8.359-6.075 1.161-27.771 7.802-42.472 17.648-6.471 4.333-6.557 10.361-11.916 14.901 2.35-8.991-4.124-12.228-9.659-12.43m-16.29 96.678c2.704 0.093 4.04-0.02 5.296-0.188-11.68-5.072-21.337-6.797-25.201-12.648-0.599 1.606 0.054 4.572 1.382 6.677-4.248-1.664-5.947-6.633-5.057-13.262-3.025-4.494-3.709-10.925 1.548-17.698-5.077 16.888 10.597 24.48 30.125 33.15-1.682 0.733-4.97 0.89-4.97 0.89 1.666 1.059 3.862 2.373 6.406 3.498-2.945 0.745-6.457 1.533-11.867 1.469zm9.322-68.336c4.379-1.298 9.731 0.162 12.65 3.73-7.785-3.082-36.629 8.542-38.8 25.056-1.059-8.843 3.649-15.083 6.689-17.394-2.247-1.978-3.214-4.916-2.944-8.153-3.237 1.618-5.723 8.93-5.26 13.506-2.706-1.214-3.715-2.93-5.076-5.356-0.922 4.246 0.211 9 2.445 11.186-1.46 0.445-3.089 0.515-4.369 0.289 0.627 1.757 2.184 3.866 5.056 5.832-3.765-0.282-9.622-3.849-10.509-9.273 1.688 0.38 3.972 0.129 5.296-0.276-1.701-3.988-1.725-10.572 1.765-15.767 0.204 1.84 1.299 5.19 3.434 6.779-0.374-4.831 3.087-12.742 10.347-14.247-0.072 2.651 0.198 5.708 1.367 7.776 3.2-12.43 10.43-17.353 18.05-16.746-3.035 1.731-6.794 5.35-7.261 10.812 4.963-7.871 24.556-13.217 29.681-10.969-8.452 1.978-19.642 7.052-22.561 13.215m54.856-16.948c6.354-2.865 17.702 0.076 20.678 1.954 3.49 2.204 3.148 5.732-1.096 7.777-4.243 2.045-57.572 21.307-60.45 22.38 0.617 1.743-0.602 5.099-2.389 5.947-1.44 0.684-19.265 7.448-32.033 12.662-3.509 1.434-8.265 4.173-9.074 8.759-1.528-6.654 3.222-10.233 5.769-11.347 3.043-1.331 30.556-12.48 32.714-13.469 1.293-0.593 1.708-2.967 0.753-5.029 9.08-3.401 57.786-21.366 60.023-22.488 2.236-1.121 2.451-2.283-0.02-2.849-3.315-0.76-8.845-2.062-15.426 0.624-4.158 1.697-32.652 13.108-37.774 14.901 3.951-2.312 27.109-14.015 32.289-16.519-3.702-2.669-24.52 2.135-30.454 5.577 11.92-11.312 33.457-11.863 36.49-8.88" fill="#fff"/></g><g transform="translate(275.75 304.13)"><path d="m0 0c-0.31 8.055-5.379 9.349-8.777 9.604-1.766 0.132-2.845 0.132-3.924 0.199-3.596 2.587-10.308 6.079-11.193 6.654-1.035 0.674-3.014 1.798-5.576 2.248 1.933 0.179 2.891 0.672 3.492 1.155 0.601 0.482 0.791 0.839 1.612 1.089 0.821 0.251 0.487 1.345-0.448 1.958-0.934 0.612-1.5 1.486-2.219-0.079s-1.709-1.815-2.887-1.876c-1.178-0.06-1.488-1.725-2.517-1.798-7.427-0.525-16.677 3.555-21.939 6.564l-2.787-1.529c2.967-1.705 6.775-3.42 7.675-3.747 1.345-0.487 6.202-2.47 7.601-2.642-0.902-7.042-0.163-10.209 0.79-14.661 0.242-1.128 0.796-3.573-1.403-4.62 2.352-1.992 4.253 1.746 4.955 0.913 0.703-0.832 1.976-0.593 1.976-0.593-5.393 7.648-4.548 11.641-4.414 18.394 8.894-0.237 13.93-2.125 16.871-3.828 3.65-2.112 8.32-4.209 11.265-5.355 5.598-2.18 7.303-8.153 7.097-12.387-2.106 8.516-8.357 10.339-10.832 11.121-5.47-6.317-1.482-13.294 3.81-15.148 4.218-1.479 8.939-3.502 9.81-7.642 1.652 4.234 2.272 7.951 1.962 16.006" fill="#fff"/></g><g transform="translate(205.79 336.96)"><path d="m0 0c-5.754 5.125-10.452 6.316-12.745 4.091-1.623-1.575-3.436 1.287-3.237 2.225 0.472 2.226 2.546 0.913 4.72 1.484 5.08 1.333 15.604-7.141 15.604-7.141l4.29-3.581-3.417-1.484z" fill="#fff"/></g></g><g clip-path="url(#clipPath186)"><g transform="translate(56.693 145.47)"><path d="m0 0c4.196 0 6.604 2.306 6.604 6.326 0 3.936-2.345 6.104-6.604 6.104h-7.326v-12.43zm-16.23-20.07v40.015h16.73c9.117 0 15.007-5.346 15.007-13.619 0-8.149-6.171-13.841-15.007-13.841h-7.826v-12.555z" fill="#2e3033"/></g><g transform="translate(91.489 125.4)"><path d="m0 0v40.015h28.348v-7.571h-19.445v-8.374h17.778v-7.626h-17.778v-8.873h19.501v-7.571z" fill="#2e3033"/></g><g transform="translate(157.01 145.25)"><path d="m0 0c4.169 0 6.658 2.406 6.658 6.437 0 3.986-2.426 6.27-6.658 6.27h-8.271v-12.707zm6.118-19.848-7.112 12.444h-7.277v-12.444h-8.903v40.015h18.118c8.882 0 14.619-5.412 14.619-13.786 0-5.458-2.763-9.991-7.426-12.25l8.296-13.979z" fill="#2e3033"/></g><g transform="translate(263.55 158.63)"><path d="m0 0c-5.716 0-8.993-3.642-8.993-9.993v-6.444c0-6.351 3.277-9.993 8.993-9.993 5.714 0 8.991 3.642 8.991 9.993v6.444c0 6.351-3.277 9.993-8.991 9.993m0-34c-10.872 0-17.896 7.047-17.896 17.952v5.666c0 10.905 7.024 17.952 17.896 17.952 11.038 0 17.896-6.879 17.896-17.952v-5.666c0-11.073-6.858-17.952-17.896-17.952" fill="#2e3033"/></g><g transform="translate(326.49 125.4)"><path d="m0 0-16.077 24.565v-24.565h-8.737v40.015h8.255l16.077-24.565v24.565h8.738v-40.015z" fill="#2e3033"/></g><g transform="translate(377.64 140.86)"><path d="m0 0-4.792 15.137-4.837-15.137zm4.968-15.459-2.611 8.166h-14.29l-2.611-8.166h-8.931l14.348 40.015h8.679l14.348-40.015z" fill="#2e3033"/></g><g transform="translate(218.56 139.51)"><path d="m0 0c-0.667-4.615-3.782-7.371-8.43-7.371-7.582 0-8.715 6.33-8.715 10.103v6.333c0 3.774 1.133 10.104 8.715 10.104 4.636 0 7.745-2.743 8.423-7.335l8.27 1.233c-1.111 8.091-7.767 13.616-16.693 13.616-10.997 0-17.562-6.732-17.562-18.007v-5.555c0-11.276 6.565-18.007 17.562-18.007 8.939 0 15.601 5.543 16.696 13.654z" fill="#2e3033"/></g></g><text transform="matrix(1 0 0 -1 44.755 83.826)" fill="#d71f21" font-family="'Colfax Regular'" font-size="25.88px"><tspan x="0 20.4452 35.170921 50.388359 56.806599 66.32785 81.053574 90.189209 96.607452 111.82489 127.19761 132.8912 147.7981 163.01553 178.44002 184.13361 204.57881 219.48569 234.70312 249.61002 264.98273 279.32025 303.41452 317.75204 332.84009" y="0">Monitoring and Management</tspan></text></g></svg>
